<svg preserveAspectRatio="none" overflow="visible" style="display: block;" width="16.5004" height="16.9196" viewBox="0 0 16.5004 16.9196" fill="none" xmlns="http://www.w3.org/2000/svg">
<g id="Red social/WhatsApp &#194;&#183; Contenido">
<path id="Vector" d="M15.75 8.16956C15.7635 9.48765 15.4293 10.786 14.7811 11.9338C14.133 13.0816 13.1937 14.0383 12.0581 14.7075C10.9225 15.3767 9.6305 15.7348 8.31239 15.7457C6.99427 15.7566 5.69657 15.4199 4.55002 14.7696L0.750022 16.1696L2.05002 12.4696C1.39153 11.5019 0.968644 10.3936 0.815192 9.23331C0.661741 8.07298 0.781984 6.89285 1.1663 5.78732C1.55062 4.68179 2.18835 3.68155 3.02846 2.86662C3.86858 2.05169 4.88776 1.4447 6.00447 1.09419C7.12118 0.743694 8.30443 0.659415 9.45955 0.848103C10.6147 1.03679 11.7096 1.49321 12.6567 2.18084C13.6039 2.86846 14.3769 3.76822 14.914 4.80812C15.4512 5.84802 15.7375 6.9992 15.75 8.16956Z" stroke="#D9A441" stroke-width="1.5" stroke-linejoin="round"/>
<path id="Vector_2" d="M5.25032 5.16956C5.75032 8.36956 7.55032 10.1696 10.7503 10.6696L11.7503 9.26956L13.7503 10.0696C13.5503 11.7696 12.4503 12.6696 10.7503 12.5696C6.55032 12.0696 3.85032 9.36956 3.35032 5.16956C3.25032 3.46956 4.15032 2.36956 5.85032 2.16956L6.65032 4.16956L5.25032 5.16956Z" fill="#D9A441"/>
</g>
</svg>
